<svg width="62" height="70" viewBox="0 0 62 70" fill="none" xmlns="http://www.w3.org/2000/svg">
<path d="M0.650604 0.546875L6.14943 62.2798L30.8233 69.1595L55.5662 62.2546L61.0694 0.546875H0.650604ZM49.6457 14.6902L47.8153 35.2554L47.8208 35.3664L47.8131 35.6218V35.6196L46.5126 49.9991L46.3694 51.2766L30.86 55.5663L30.8479 55.5773L15.3654 51.2635L14.317 39.375H21.9093L22.4479 45.4202L30.8622 47.7006L30.86 47.705V47.7039L39.3054 45.3912L40.1979 35.5469H22.5431L22.3916 33.8827L22.0465 29.9841L21.8655 27.8906H40.8689L41.5601 20.2344H12.6162L12.4647 18.5713L12.1202 14.6716L11.9387 12.5781H49.8267L49.6457 14.6902Z" fill="#444444"/>
</svg>
