<svg width="70" height="70" viewBox="0 0 70 70" fill="none" xmlns="http://www.w3.org/2000/svg">
<path d="M67.9155 31.9255L37.774 1.78499C36.0393 0.049209 33.224 0.049209 31.4865 1.78499L25.2281 8.04452L33.1676 15.9841C35.0133 15.3612 37.1287 15.779 38.5992 17.2495C40.0774 18.7294 40.4919 20.8627 39.8537 22.7144L47.5056 30.3669C49.3568 29.7287 51.4934 30.141 52.9711 31.6219C55.0383 33.6875 55.0383 37.036 52.9711 39.1026C50.9039 41.1698 47.5565 41.1698 45.4882 39.1026C43.934 37.5473 43.5495 35.2641 44.337 33.349L37.2014 26.2133L37.2003 44.9936C37.7045 45.2424 38.1797 45.5749 38.5997 45.9933C40.6658 48.0588 40.6658 51.4062 38.5997 53.4762C36.5331 55.5417 33.1835 55.5417 31.119 53.4762C29.053 51.4068 29.053 48.0594 31.119 45.9933C31.6298 45.483 32.2205 45.0975 32.851 44.8394V25.8852C32.2205 25.6271 31.6309 25.2443 31.119 24.7308C29.5539 23.1667 29.1771 20.8698 29.9799 18.947L22.1525 11.1196L1.48499 31.786C-0.251343 33.5234 -0.251343 36.3387 1.48499 38.0751L31.6271 68.2155C33.3629 69.9513 36.1771 69.9513 37.9156 68.2155L67.9161 38.2151C69.6519 36.4782 69.6519 33.6612 67.9155 31.9255Z" fill="#444444"/>
</svg>
