<svg width="50" height="50" viewBox="0 0 50 50" fill="none" xmlns="http://www.w3.org/2000/svg">
<path fill-rule="evenodd" clip-rule="evenodd" d="M24.999 0C11.1927 0 0 11.4756 0 25.6352C0 36.9586 7.1625 46.5662 17.0979 49.9555C18.3479 50.1917 18.8052 49.4002 18.8052 48.7215C18.8052 48.1119 18.7833 46.5002 18.7698 44.3619C11.8156 45.9108 10.3479 40.9257 10.3479 40.9257C9.21252 37.964 7.57395 37.1757 7.57395 37.1757C5.30312 35.5853 7.74581 35.6171 7.74581 35.6171C10.2531 35.798 11.5729 38.2587 11.5729 38.2587C13.8052 42.1768 17.425 41.0459 18.85 40.3885C19.076 38.7321 19.7229 37.6023 20.4375 36.9619C14.8854 36.314 9.04999 34.1161 9.04999 24.2937C9.04999 21.4958 10.0229 19.2075 11.6229 17.415C11.3656 16.766 10.5083 14.1607 11.8677 10.6309C11.8677 10.6309 13.9666 9.94261 18.7427 13.2586C20.7375 12.6905 22.875 12.4064 25.001 12.3958C27.125 12.4064 29.2635 12.6905 31.2614 13.2586C36.0323 9.94261 38.1282 10.6309 38.1282 10.6309C39.4927 14.1607 38.6344 16.766 38.3771 17.415C39.9791 19.2075 40.9469 21.4948 40.9469 24.2937C40.9469 34.1406 35.1021 36.3076 29.5333 36.9427C30.4292 37.7342 31.2302 39.297 31.2302 41.6895C31.2302 45.1151 31.1989 47.88 31.1989 48.7215C31.1989 49.4066 31.649 50.2045 32.9177 49.9524C42.8438 46.5566 50 36.9555 50 25.6352C50 11.4756 38.8063 0 24.999 0Z" fill="white"/>
</svg>
