<svg width="860" height="349" viewBox="0 0 860 349" fill="none" xmlns="http://www.w3.org/2000/svg">
<g clip-path="url(#clip0_2_719)">
<path fill-rule="evenodd" clip-rule="evenodd" d="M512.615 43.4644H176.632C173.964 43.4644 171.549 44.5451 169.801 46.2922C168.053 48.0397 166.971 50.4541 166.971 53.121V283.211C166.971 285.876 168.053 288.291 169.802 290.039C171.55 291.786 173.965 292.867 176.632 292.867H512.615C515.283 292.867 517.698 291.787 519.446 290.039C521.194 288.292 522.276 285.878 522.276 283.211V53.121C522.276 50.4555 521.194 48.0409 519.445 46.2929C517.697 44.5456 515.282 43.4644 512.615 43.4644Z" fill="white" stroke="#141C3A" stroke-width="2.75964"/>
<path fill-rule="evenodd" clip-rule="evenodd" d="M496.061 64.8516H192.841C191.699 64.8516 190.664 65.3154 189.915 66.0658C189.167 66.8151 188.704 67.8501 188.704 68.9933V240.432C188.704 241.575 189.167 242.61 189.915 243.36C190.664 244.11 191.698 244.573 192.841 244.573H496.061C497.203 244.573 498.238 244.11 498.987 243.359C499.735 242.61 500.198 241.575 500.198 240.432V68.9933C500.198 67.8499 499.736 66.8148 498.987 66.0655C498.239 65.3154 497.204 64.8516 496.061 64.8516Z" fill="#4845DB" stroke="#4845DB" stroke-width="2.75964"/>
<path fill-rule="evenodd" clip-rule="evenodd" d="M370.271 292.867H319.321L315.881 337.366H373.711L370.271 292.867Z" fill="white" stroke="#141C3A" stroke-width="2.75964"/>
<path fill-rule="evenodd" clip-rule="evenodd" d="M394.641 347.37H294.951C294.855 347.37 294.769 347.332 294.707 347.269C294.644 347.206 294.605 347.118 294.605 347.022V342.368C294.605 340.987 295.165 339.737 296.07 338.831C296.976 337.926 298.227 337.366 299.609 337.366H389.983C391.364 337.366 392.616 337.926 393.521 338.832C394.427 339.737 394.987 340.987 394.987 342.368V347.022C394.987 347.119 394.949 347.206 394.886 347.269C394.823 347.332 394.737 347.37 394.641 347.37Z" fill="white" stroke="#141C3A" stroke-width="2.75964"/>
<path d="M344.796 276.999C348.32 276.999 351.178 274.142 351.178 270.618C351.178 267.093 348.32 264.236 344.796 264.236C341.271 264.236 338.414 267.093 338.414 270.618C338.414 274.142 341.271 276.999 344.796 276.999Z" stroke="#141C3A" stroke-width="2.75964"/>
<path d="M194.223 213.182H142.48C137.907 213.182 134.201 216.889 134.201 221.461V339.091C134.201 343.664 137.907 347.37 142.48 347.37H194.223C198.795 347.37 202.502 343.664 202.502 339.091V221.461C202.502 216.889 198.795 213.182 194.223 213.182Z" fill="white" stroke="#141C3A" stroke-width="2.75964"/>
<path fill-rule="evenodd" clip-rule="evenodd" d="M202.502 228.361H134.201V327.466H202.502V228.361Z" fill="#141C3A" stroke="#141C3A" stroke-width="2.75964"/>
<path d="M183.529 219.392H153.518C152.756 219.392 152.138 220.009 152.138 220.772C152.138 221.534 152.756 222.151 153.518 222.151H183.529C184.291 222.151 184.909 221.534 184.909 220.772C184.909 220.009 184.291 219.392 183.529 219.392Z" fill="#141C3A"/>
<path d="M172.422 337.159C172.422 334.988 170.661 333.227 168.489 333.227C166.317 333.227 164.557 334.988 164.557 337.159C164.557 339.331 166.317 341.092 168.489 341.092C170.661 341.092 172.422 339.331 172.422 337.159Z" fill="#141C3A"/>
<path d="M153.518 282.863C156.376 282.863 158.693 280.547 158.693 277.689C158.693 274.831 156.376 272.515 153.518 272.515C150.66 272.515 148.344 274.831 148.344 277.689C148.344 280.547 150.66 282.863 153.518 282.863Z" fill="#4845DB" stroke="#4845DB" stroke-width="2.75964"/>
<path d="M188.359 268.72H166.971C166.209 268.72 165.592 269.338 165.592 270.1C165.592 270.862 166.209 271.48 166.971 271.48H188.359C189.121 271.48 189.738 270.862 189.738 270.1C189.738 269.338 189.121 268.72 188.359 268.72Z" fill="white"/>
<path d="M181.46 276.309H166.971C166.209 276.309 165.592 276.927 165.592 277.689C165.592 278.451 166.209 279.069 166.971 279.069H181.46C182.222 279.069 182.839 278.451 182.839 277.689C182.839 276.927 182.222 276.309 181.46 276.309Z" fill="white"/>
<path d="M174.56 283.898H166.971C166.209 283.898 165.592 284.516 165.592 285.278C165.592 286.04 166.209 286.658 166.971 286.658H174.56C175.323 286.658 175.94 286.04 175.94 285.278C175.94 284.516 175.323 283.898 174.56 283.898Z" fill="white"/>
<path d="M99.1877 278.379C128.432 278.379 152.138 254.672 152.138 225.428C152.138 196.185 128.432 172.478 99.1877 172.478C69.9439 172.478 46.2371 196.185 46.2371 225.428C46.2371 254.672 69.9439 278.379 99.1877 278.379Z" fill="#5BE9B9" stroke="#141C3A" stroke-width="2.75964"/>
<path fill-rule="evenodd" clip-rule="evenodd" d="M669.23 161.439H433.274C430.607 161.439 428.193 162.52 426.446 164.268C424.699 166.016 423.618 168.43 423.618 171.098V323.223C423.618 325.889 424.699 328.304 426.447 330.052C428.194 331.8 430.608 332.882 433.274 332.882H669.23C671.897 332.882 674.311 331.801 676.058 330.053C677.805 328.305 678.885 325.891 678.885 323.223V171.098C678.885 168.432 677.804 166.017 676.057 164.269C674.309 162.521 671.896 161.439 669.23 161.439Z" fill="white" stroke="#141C3A" stroke-width="2.75964"/>
<path fill-rule="evenodd" clip-rule="evenodd" d="M696.136 332.882H406.368C406.274 332.882 406.188 332.921 406.127 332.982C406.064 333.045 406.026 333.132 406.026 333.227V340.126C406.026 342.127 406.837 343.938 408.148 345.248C409.459 346.56 411.271 347.37 413.272 347.37H689.232C691.233 347.37 693.044 346.559 694.356 345.248C695.667 343.938 696.478 342.127 696.478 340.126V333.227C696.478 333.132 696.439 333.045 696.377 332.983C696.315 332.921 696.23 332.882 696.136 332.882Z" fill="white" stroke="#141C3A" stroke-width="2.75964"/>
<path fill-rule="evenodd" clip-rule="evenodd" d="M570.324 333.037L531.695 333.037C532.368 334.808 533.497 336.354 534.939 337.531C536.78 339.035 539.132 339.936 541.695 339.936H560.326C562.887 339.936 565.239 339.034 567.08 337.531C568.522 336.354 569.652 334.808 570.324 333.037Z" fill="white" stroke="#141C3A" stroke-width="2.75964"/>
<path d="M665.917 176.272H436.382C434.858 176.272 433.622 177.508 433.622 179.032V315.582C433.622 317.107 434.858 318.342 436.382 318.342H665.917C667.441 318.342 668.677 317.107 668.677 315.582V179.032C668.677 177.508 667.441 176.272 665.917 176.272Z" fill="#5BE9B9"/>
<path d="M337.035 69.681C337.987 69.681 338.759 68.9088 338.759 67.9562C338.759 67.0037 337.987 66.2314 337.035 66.2314C336.082 66.2314 335.31 67.0037 335.31 67.9562C335.31 68.9088 336.082 69.681 337.035 69.681Z" fill="#293347"/>
<path fill-rule="evenodd" clip-rule="evenodd" d="M394.987 20.3524H241.137V170.409C241.137 172.314 241.909 174.039 243.157 175.287C244.407 176.535 246.133 177.307 248.039 177.307H388.085C389.991 177.307 391.717 176.535 392.966 175.286C394.215 174.038 394.987 172.314 394.987 170.409V20.3524Z" fill="#141C3A" stroke="#141C3A" stroke-width="2.75964"/>
<path fill-rule="evenodd" clip-rule="evenodd" d="M388.085 1.37982H248.039C246.133 1.37982 244.407 2.15211 243.158 3.40084C241.909 4.64956 241.137 6.3747 241.137 8.28024V17.5927H394.987V8.28024C394.987 6.37526 394.214 4.6501 392.965 3.40121C391.716 2.15245 389.991 1.37982 388.085 1.37982Z" fill="white" stroke="#141C3A" stroke-width="2.75964"/>
<path d="M253.21 12.7633C254.925 12.7633 256.315 11.3734 256.315 9.65874C256.315 7.94411 254.925 6.55414 253.21 6.55414C251.496 6.55414 250.106 7.94411 250.106 9.65874C250.106 11.3734 251.496 12.7633 253.21 12.7633Z" fill="#141C3A"/>
<path d="M263.559 12.7633C265.274 12.7633 266.664 11.3734 266.664 9.65874C266.664 7.94411 265.274 6.55414 263.559 6.55414C261.844 6.55414 260.454 7.94411 260.454 9.65874C260.454 11.3734 261.844 12.7633 263.559 12.7633Z" fill="#4845DB"/>
<path d="M273.908 12.7633C275.622 12.7633 277.012 11.3734 277.012 9.65874C277.012 7.94411 275.622 6.55414 273.908 6.55414C272.193 6.55414 270.803 7.94411 270.803 9.65874C270.803 11.3734 272.193 12.7633 273.908 12.7633Z" fill="#5BE9B9"/>
<path opacity="0.54" d="M262.524 118.32H259.075C258.313 118.32 257.695 118.937 257.695 119.7C257.695 120.462 258.313 121.079 259.075 121.079H262.524C263.286 121.079 263.904 120.462 263.904 119.7C263.904 118.937 263.286 118.32 262.524 118.32Z" fill="#535B6B"/>
<path opacity="0.54" d="M262.524 49.3286H259.075C258.313 49.3286 257.695 49.9464 257.695 50.7084C257.695 51.4705 258.313 52.0883 259.075 52.0883H262.524C263.286 52.0883 263.904 51.4705 263.904 50.7084C263.904 49.9464 263.286 49.3286 262.524 49.3286Z" fill="#535B6B"/>
<path fill-rule="evenodd" clip-rule="evenodd" d="M269.423 49.3286H278.737C279.499 49.3286 280.117 49.9464 280.117 50.7084C280.117 51.4705 279.499 52.0883 278.737 52.0883H269.423C268.661 52.0883 268.043 51.4705 268.043 50.7084C268.043 49.9464 268.661 49.3286 269.423 49.3286Z" fill="#4845DB"/>
<path fill-rule="evenodd" clip-rule="evenodd" d="M284.946 49.3286H294.26C295.022 49.3286 295.64 49.9464 295.64 50.7084C295.64 51.4705 295.022 52.0883 294.26 52.0883H284.946C284.184 52.0883 283.566 51.4705 283.566 50.7084C283.566 49.9464 284.184 49.3286 284.946 49.3286Z" fill="#5BE9B9"/>
<path fill-rule="evenodd" clip-rule="evenodd" d="M300.469 49.3286H317.717C318.479 49.3286 319.097 49.9464 319.097 50.7084C319.097 51.4705 318.479 52.0883 317.717 52.0883H300.469C299.707 52.0883 299.089 51.4705 299.089 50.7084C299.089 49.9464 299.707 49.3286 300.469 49.3286Z" fill="#4845DB"/>
<path fill-rule="evenodd" clip-rule="evenodd" d="M323.926 49.3286H349.453C350.215 49.3286 350.833 49.9464 350.833 50.7084C350.833 51.4705 350.215 52.0883 349.453 52.0883H323.926C323.164 52.0883 322.546 51.4705 322.546 50.7084C322.546 49.9464 323.164 49.3286 323.926 49.3286Z" fill="#4845DB"/>
<path opacity="0.54" d="M262.524 63.1268H259.075C258.313 63.1268 257.695 63.7446 257.695 64.5067C257.695 65.2687 258.313 65.8865 259.075 65.8865H262.524C263.286 65.8865 263.904 65.2687 263.904 64.5067C263.904 63.7446 263.286 63.1268 262.524 63.1268Z" fill="#535B6B"/>
<path opacity="0.54" d="M262.524 76.925H259.075C258.313 76.925 257.695 77.5428 257.695 78.3049C257.695 79.0669 258.313 79.6847 259.075 79.6847H262.524C263.286 79.6847 263.904 79.0669 263.904 78.3049C263.904 77.5428 263.286 76.925 262.524 76.925Z" fill="#535B6B"/>
<path opacity="0.54" d="M262.524 90.7233H259.075C258.313 90.7233 257.695 91.341 257.695 92.1031C257.695 92.8651 258.313 93.4829 259.075 93.4829H262.524C263.286 93.4829 263.904 92.8651 263.904 92.1031C263.904 91.341 263.286 90.7233 262.524 90.7233Z" fill="#535B6B"/>
<path opacity="0.54" d="M262.524 104.521H259.075C258.313 104.521 257.695 105.139 257.695 105.901C257.695 106.663 258.313 107.281 259.075 107.281H262.524C263.286 107.281 263.904 106.663 263.904 105.901C263.904 105.139 263.286 104.521 262.524 104.521Z" fill="#535B6B"/>
<path opacity="0.54" d="M262.524 132.118H259.075C258.313 132.118 257.695 132.736 257.695 133.498C257.695 134.26 258.313 134.878 259.075 134.878H262.524C263.286 134.878 263.904 134.26 263.904 133.498C263.904 132.736 263.286 132.118 262.524 132.118Z" fill="#535B6B"/>
<path opacity="0.54" d="M262.524 145.916H259.075C258.313 145.916 257.695 146.534 257.695 147.296C257.695 148.058 258.313 148.676 259.075 148.676H262.524C263.286 148.676 263.904 148.058 263.904 147.296C263.904 146.534 263.286 145.916 262.524 145.916Z" fill="#535B6B"/>
<path d="M290.811 63.1268H269.423C268.661 63.1268 268.043 63.7446 268.043 64.5067C268.043 65.2687 268.661 65.8865 269.423 65.8865H290.811C291.573 65.8865 292.19 65.2687 292.19 64.5067C292.19 63.7446 291.573 63.1268 290.811 63.1268Z" fill="#4845DB"/>
<path d="M335.655 63.1268H297.02C296.258 63.1268 295.64 63.7446 295.64 64.5067C295.64 65.2687 296.258 65.8865 297.02 65.8865H335.655C336.417 65.8865 337.035 65.2687 337.035 64.5067C337.035 63.7446 336.417 63.1268 335.655 63.1268Z" fill="#5BE9B9"/>
<path d="M356.352 63.1268H341.864C341.102 63.1268 340.484 63.7446 340.484 64.5067C340.484 65.2687 341.102 65.8865 341.864 65.8865H356.352C357.114 65.8865 357.732 65.2687 357.732 64.5067C357.732 63.7446 357.114 63.1268 356.352 63.1268Z" fill="#4845DB"/>
<path d="M283.911 76.925H269.423C268.661 76.925 268.043 77.5428 268.043 78.3049C268.043 79.0669 268.661 79.6847 269.423 79.6847H283.911C284.673 79.6847 285.291 79.0669 285.291 78.3049C285.291 77.5428 284.673 76.925 283.911 76.925Z" fill="#5BE9B9"/>
<path d="M304.609 76.925H290.121C289.359 76.925 288.741 77.5428 288.741 78.3049C288.741 79.0669 289.359 79.6847 290.121 79.6847H304.609C305.371 79.6847 305.989 79.0669 305.989 78.3049C305.989 77.5428 305.371 76.925 304.609 76.925Z" fill="#4845DB"/>
<path d="M318.407 76.925H310.818C310.056 76.925 309.438 77.5428 309.438 78.3049C309.438 79.0669 310.056 79.6847 310.818 79.6847H318.407C319.169 79.6847 319.787 79.0669 319.787 78.3049C319.787 77.5428 319.169 76.925 318.407 76.925Z" fill="#4845DB"/>
<path d="M301.159 90.7233H269.423C268.661 90.7233 268.043 91.341 268.043 92.1031C268.043 92.8651 268.661 93.4829 269.423 93.4829H301.159C301.921 93.4829 302.539 92.8651 302.539 92.1031C302.539 91.341 301.921 90.7233 301.159 90.7233Z" fill="#4845DB"/>
<path d="M328.756 90.7233H307.368C306.606 90.7233 305.989 91.341 305.989 92.1031C305.989 92.8651 306.606 93.4829 307.368 93.4829H328.756C329.518 93.4829 330.135 92.8651 330.135 92.1031C330.135 91.341 329.518 90.7233 328.756 90.7233Z" fill="#4845DB"/>
<path d="M301.159 104.521H269.423C268.661 104.521 268.043 105.139 268.043 105.901C268.043 106.663 268.661 107.281 269.423 107.281H301.159C301.921 107.281 302.539 106.663 302.539 105.901C302.539 105.139 301.921 104.521 301.159 104.521Z" fill="#4845DB"/>
<path d="M349.453 104.521H307.368C306.606 104.521 305.989 105.139 305.989 105.901C305.989 106.663 306.606 107.281 307.368 107.281H349.453C350.215 107.281 350.833 106.663 350.833 105.901C350.833 105.139 350.215 104.521 349.453 104.521Z" fill="#5BE9B9"/>
<path d="M290.811 118.32H269.423C268.661 118.32 268.043 118.937 268.043 119.7C268.043 120.462 268.661 121.079 269.423 121.079H290.811C291.573 121.079 292.19 120.462 292.19 119.7C292.19 118.937 291.573 118.32 290.811 118.32Z" fill="#4845DB"/>
<path d="M318.407 118.32H297.02C296.258 118.32 295.64 118.937 295.64 119.7C295.64 120.462 296.258 121.079 297.02 121.079H318.407C319.169 121.079 319.787 120.462 319.787 119.7C319.787 118.937 319.169 118.32 318.407 118.32Z" fill="#5BE9B9"/>
<path d="M335.655 118.32H324.616C323.854 118.32 323.236 118.937 323.236 119.7C323.236 120.462 323.854 121.079 324.616 121.079H335.655C336.417 121.079 337.035 120.462 337.035 119.7C337.035 118.937 336.417 118.32 335.655 118.32Z" fill="#4845DB"/>
<path d="M311.508 132.118H269.423C268.661 132.118 268.043 132.736 268.043 133.498C268.043 134.26 268.661 134.878 269.423 134.878H311.508C312.27 134.878 312.888 134.26 312.888 133.498C312.888 132.736 312.27 132.118 311.508 132.118Z" fill="#4845DB"/>
<path d="M287.361 145.916H269.423C268.661 145.916 268.043 146.534 268.043 147.296C268.043 148.058 268.661 148.676 269.423 148.676H287.361C288.123 148.676 288.741 148.058 288.741 147.296C288.741 146.534 288.123 145.916 287.361 145.916Z" fill="#5BE9B9"/>
<path fill-rule="evenodd" clip-rule="evenodd" d="M738.908 125.909H549.872V260.44C549.872 263.108 550.953 265.523 552.702 267.271C554.45 269.019 556.866 270.1 559.534 270.1H729.246C731.915 270.1 734.33 269.019 736.078 267.272C737.827 265.524 738.908 263.108 738.908 260.44V125.909Z" fill="white" stroke="#141C3A" stroke-width="2.75964"/>
<path fill-rule="evenodd" clip-rule="evenodd" d="M729.246 108.661H559.534C556.865 108.661 554.45 109.742 552.702 111.488C550.953 113.236 549.872 115.65 549.872 118.317V128.668H738.908V118.317C738.908 115.651 737.826 113.236 736.077 111.489C734.329 109.742 731.914 108.661 729.246 108.661Z" fill="#141C3A" stroke="#141C3A" stroke-width="2.75964"/>
<path d="M564.705 121.769C566.42 121.769 567.81 120.379 567.81 118.665C567.81 116.95 566.42 115.56 564.705 115.56C562.991 115.56 561.601 116.95 561.601 118.665C561.601 120.379 562.991 121.769 564.705 121.769Z" fill="white"/>
<path d="M575.054 121.769C576.768 121.769 578.158 120.379 578.158 118.665C578.158 116.95 576.768 115.56 575.054 115.56C573.339 115.56 571.949 116.95 571.949 118.665C571.949 120.379 573.339 121.769 575.054 121.769Z" fill="#4845DB"/>
<path d="M585.402 121.769C587.117 121.769 588.507 120.379 588.507 118.665C588.507 116.95 587.117 115.56 585.402 115.56C583.688 115.56 582.298 116.95 582.298 118.665C582.298 120.379 583.688 121.769 585.402 121.769Z" fill="#5BE9B9"/>
<path d="M666.812 232.5C685.863 232.5 701.308 217.056 701.308 198.004C701.308 178.953 685.863 163.509 666.812 163.509C647.761 163.509 632.317 178.953 632.317 198.004C632.317 217.056 647.761 232.5 666.812 232.5Z" stroke="#4845DB" stroke-width="3.1046"/>
<path fill-rule="evenodd" clip-rule="evenodd" d="M671.297 159.369H663.018V167.648H671.297V159.369Z" fill="#FFFFFE" stroke="#5BE9B9" stroke-width="2.75964"/>
<path fill-rule="evenodd" clip-rule="evenodd" d="M670.952 228.361H662.673V236.639H670.952V228.361Z" fill="#FFFFFE" stroke="#5BE9B9" stroke-width="2.75964"/>
<path fill-rule="evenodd" clip-rule="evenodd" d="M636.456 194.21H628.177V202.489H636.456V194.21Z" fill="#FFFFFE" stroke="#5BE9B9" stroke-width="2.75964"/>
<path d="M701.308 166.958V192.83" stroke="#141C3A" stroke-width="2.75964" stroke-linecap="square"/>
<path d="M701.308 203.179V229.05" stroke="#141C3A" stroke-width="2.75964" stroke-linecap="square"/>
<path d="M701.308 170.063C703.594 170.063 705.447 168.21 705.447 165.924C705.447 163.637 703.594 161.784 701.308 161.784C699.021 161.784 697.168 163.637 697.168 165.924C697.168 168.21 699.021 170.063 701.308 170.063Z" fill="#141C3A"/>
<path d="M701.308 235.605C703.594 235.605 705.447 233.751 705.447 231.465C705.447 229.179 703.594 227.326 701.308 227.326C699.021 227.326 697.168 229.179 697.168 231.465C697.168 233.751 699.021 235.605 701.308 235.605Z" fill="#141C3A"/>
<path fill-rule="evenodd" clip-rule="evenodd" d="M705.102 194.21H696.823V202.489H705.102V194.21Z" fill="#FFFFFE" stroke="#5BE9B9" stroke-width="2.75964"/>
<path d="M602.305 154.885H586.437C584.151 154.885 582.298 156.738 582.298 159.025V174.892C582.298 177.179 584.151 179.032 586.437 179.032H602.305C604.591 179.032 606.445 177.179 606.445 174.892V159.025C606.445 156.738 604.591 154.885 602.305 154.885Z" fill="#141C3A"/>
<path d="M602.305 185.931H586.437C584.151 185.931 582.298 187.784 582.298 190.071V205.939C582.298 208.225 584.151 210.078 586.437 210.078H602.305C604.591 210.078 606.445 208.225 606.445 205.939V190.071C606.445 187.784 604.591 185.931 602.305 185.931Z" fill="#5BE9B9"/>
<path d="M602.305 216.977H586.437C584.151 216.977 582.298 218.83 582.298 221.117V236.984C582.298 239.271 584.151 241.124 586.437 241.124H602.305C604.591 241.124 606.445 239.271 606.445 236.984V221.117C606.445 218.83 604.591 216.977 602.305 216.977Z" fill="#4845DB"/>
<path d="M837.91 334.952C849.341 334.952 858.607 325.685 858.607 314.254C858.607 302.824 849.341 293.557 837.91 293.557C826.479 293.557 817.213 302.824 817.213 314.254C817.213 325.685 826.479 334.952 837.91 334.952Z" fill="white" stroke="#141C3A" stroke-width="2.75964"/>
<path d="M837.91 326.328C844.578 326.328 849.983 320.922 849.983 314.254C849.983 307.586 844.578 302.181 837.91 302.181C831.242 302.181 825.836 307.586 825.836 314.254C825.836 320.922 831.242 326.328 837.91 326.328Z" fill="white" stroke="#141C3A" stroke-width="2.75964"/>
<path d="M810.313 289.763C814.124 289.763 817.213 286.674 817.213 282.863C817.213 279.053 814.124 275.964 810.313 275.964C806.503 275.964 803.414 279.053 803.414 282.863C803.414 286.674 806.503 289.763 810.313 289.763Z" fill="#FFFFFE" stroke="#141C3A" stroke-width="2.75964"/>
<path fill-rule="evenodd" clip-rule="evenodd" d="M838.576 281.139H779.957C779.576 281.139 779.231 281.293 778.982 281.543C778.732 281.793 778.578 282.137 778.578 282.518V340.471C778.578 342.376 779.35 344.101 780.598 345.349C781.847 346.598 783.571 347.37 785.477 347.37H833.056C834.961 347.37 836.686 346.598 837.935 345.349C839.183 344.101 839.955 342.376 839.955 340.471V282.518C839.955 282.137 839.801 281.793 839.551 281.543C839.301 281.293 838.957 281.139 838.576 281.139Z" fill="white" stroke="#141C3A" stroke-width="2.75964"/>
<path fill-rule="evenodd" clip-rule="evenodd" d="M823.077 299.766H810.658C809.896 299.766 809.206 300.075 808.707 300.575C808.208 301.074 807.899 301.764 807.899 302.526V319.084C807.899 319.846 808.208 320.536 808.707 321.035C809.206 321.535 809.896 321.843 810.658 321.843H823.077C823.839 321.843 824.529 321.535 825.028 321.035C825.527 320.536 825.836 319.846 825.836 319.084V302.526C825.836 301.764 825.527 301.074 825.028 300.575C824.529 300.075 823.839 299.766 823.077 299.766Z" fill="#5BE9B9" stroke="#141C3A" stroke-width="2.75964"/>
<path d="M816.695 281.656V297.352" stroke="#141C3A" stroke-width="2.75964" stroke-linecap="square"/>
<path fill-rule="evenodd" clip-rule="evenodd" d="M739.253 328.467C733.651 328.467 728.581 330.737 724.91 334.407C721.559 337.759 719.375 342.277 719.02 347.301H759.485C759.13 342.277 756.946 337.759 753.595 334.407C749.925 330.737 744.854 328.467 739.253 328.467Z" fill="white" stroke="#141C3A" stroke-width="2.89763"/>
<path d="M740.632 330.122C740.632 329.36 740.015 328.743 739.253 328.743C738.491 328.743 737.873 329.36 737.873 330.122V331.847C737.873 332.609 738.491 333.227 739.253 333.227C740.015 333.227 740.632 332.609 740.632 331.847V330.122Z" fill="#141C3A"/>
<path fill-rule="evenodd" clip-rule="evenodd" d="M105.224 306.665H21.7454C16.1252 306.665 11.037 308.943 7.35394 312.627C3.67086 316.31 1.39282 321.398 1.39282 327.018C1.39282 332.638 3.67086 337.726 7.35394 341.409C11.037 345.092 16.1252 347.37 21.7454 347.37H105.224C105.796 347.37 106.313 347.139 106.688 346.764C107.062 346.39 107.294 345.872 107.294 345.301V342.097C107.294 341.373 107.014 340.711 106.554 340.216C106.094 339.722 105.453 339.396 104.73 339.345C99.9552 339.005 96.4055 337.793 94.0258 335.823C91.518 333.748 90.2182 330.828 90.2182 327.018C90.2182 323.203 91.5209 320.254 94.0574 318.129C96.4545 316.12 100.033 314.845 104.862 314.411C105.553 314.328 106.16 313.995 106.594 313.507C107.031 313.017 107.294 312.372 107.294 311.671V308.735C107.294 308.164 107.062 307.646 106.688 307.272C106.313 306.897 105.796 306.665 105.224 306.665Z" fill="#4845DB" stroke="#141C3A" stroke-width="2.75964"/>
<path fill-rule="evenodd" clip-rule="evenodd" d="M101.011 314.599H21.4003C17.971 314.599 14.8664 315.989 12.6191 318.237C10.3718 320.484 8.98187 323.589 8.98187 327.018C8.98187 330.447 10.3718 333.552 12.6191 335.799C14.8664 338.046 17.971 339.436 21.4003 339.436C58.9646 339.436 85.6752 339.508 101.532 339.651C98.7567 338.901 95.5735 337.839 93.3133 335.518C91.4976 333.653 90.2182 330.998 90.2182 327.018C90.2182 323 91.5216 320.335 93.3645 318.477C95.4794 316.344 98.386 315.304 101.011 314.599Z" fill="white" stroke="#141C3A" stroke-width="2.75964"/>
<path fill-rule="evenodd" clip-rule="evenodd" d="M19.9947 330.122H89.7272C90.4751 330.122 91.0813 330.74 91.0813 331.502C91.0813 332.264 90.4751 332.882 89.7272 332.882H19.9947C19.2468 332.882 18.6406 332.264 18.6406 331.502C18.6406 330.74 19.2468 330.122 19.9947 330.122Z" fill="#141C3A"/>
<path fill-rule="evenodd" clip-rule="evenodd" d="M19.9947 321.154H89.7272C90.4751 321.154 91.0813 321.771 91.0813 322.533C91.0813 323.295 90.4751 323.913 89.7272 323.913H19.9947C19.2468 323.913 18.6406 323.295 18.6406 322.533C18.6406 321.771 19.2468 321.154 19.9947 321.154Z" fill="#141C3A"/>
<path d="M86.3051 237.797C84.6122 236.292 82.9193 234.787 81.2264 233.282C78.5286 230.886 75.8385 228.483 73.1407 226.087C72.5222 225.542 71.9038 224.989 71.2932 224.444C71.2932 225.166 71.2932 225.895 71.2932 226.617C72.9861 225.112 74.679 223.607 76.3719 222.102C79.0697 219.706 81.7597 217.303 84.4576 214.907C85.076 214.362 85.6944 213.809 86.3051 213.264C86.908 212.726 86.9003 211.628 86.3051 211.09C85.6635 210.499 84.7668 210.515 84.1174 211.09C82.4245 212.596 80.7316 214.101 79.0387 215.606C76.3409 218.001 73.6508 220.405 70.953 222.801C70.3346 223.346 69.7162 223.899 69.1055 224.444C68.5103 224.974 68.5103 226.087 69.1055 226.617C70.7984 228.122 72.4913 229.627 74.1842 231.132C76.882 233.528 79.5721 235.931 82.2699 238.327C82.8883 238.872 83.5068 239.425 84.1174 239.97C84.7204 240.508 85.7176 240.608 86.3051 239.97C86.8462 239.387 86.9467 238.373 86.3051 237.797Z" fill="#141C3A"/>
<path d="M112.084 213.267C113.777 214.772 115.47 216.277 117.163 217.782C119.861 220.178 122.551 222.582 125.249 224.977C125.867 225.523 126.485 226.075 127.096 226.621C127.096 225.899 127.096 225.169 127.096 224.448C125.403 225.953 123.71 227.458 122.017 228.963C119.32 231.358 116.629 233.762 113.932 236.158C113.313 236.703 112.695 237.256 112.084 237.801C111.481 238.339 111.489 239.437 112.084 239.974C112.726 240.565 113.622 240.55 114.272 239.974C115.965 238.469 117.658 236.964 119.35 235.459C122.048 233.063 124.738 230.66 127.436 228.264C128.055 227.719 128.673 227.166 129.284 226.621C129.879 226.091 129.879 224.977 129.284 224.448C127.591 222.943 125.898 221.437 124.205 219.932C121.507 217.537 118.817 215.133 116.119 212.737C115.501 212.192 114.882 211.639 114.272 211.094C113.669 210.557 112.672 210.457 112.084 211.094C111.543 211.678 111.443 212.691 112.084 213.267Z" fill="#141C3A"/>
<path d="M93.6815 246.84C94.1453 245.458 94.6014 244.076 95.0652 242.686C96.1706 239.361 97.276 236.044 98.3814 232.719C99.711 228.711 101.041 224.71 102.378 220.702C103.53 217.239 104.681 213.776 105.833 210.312C106.382 208.631 107.001 206.957 107.511 205.252C107.518 205.229 107.526 205.206 107.534 205.183C107.789 204.423 107.24 203.471 106.452 203.294C105.601 203.102 104.821 203.547 104.55 204.369C104.086 205.751 103.63 207.133 103.166 208.523C102.061 211.848 100.956 215.165 99.8502 218.49C98.5206 222.499 97.191 226.499 95.8537 230.508C94.7019 233.971 93.5501 237.434 92.3983 240.897C91.8495 242.571 91.2311 244.245 90.7209 245.95C90.7132 245.973 90.7054 245.996 90.6977 246.019C90.4426 246.779 90.9914 247.731 91.7799 247.908C92.6302 248.1 93.411 247.654 93.6815 246.84Z" fill="#141C3A"/>
</g>
<defs>
<clipPath id="clip0_2_719">
<rect width="859.974" height="348.75" fill="white" transform="translate(0.0130005)"/>
</clipPath>
</defs>
</svg>
