<svg width="69" height="69" viewBox="0 0 69 69" fill="none" xmlns="http://www.w3.org/2000/svg">
<path d="M0.643738 0.546875V68.9062H69.0031V0.546875H0.643738ZM36.8026 58.7962C35.7936 60.8464 33.8675 62.1934 31.6357 62.8436C28.2062 63.6311 24.9261 63.1821 22.4859 61.7176C20.853 60.7157 19.5776 59.1735 18.7119 57.3967L23.9182 54.2084C23.9636 54.2276 24.1003 54.4748 24.283 54.7941C24.9469 55.9065 25.5194 56.694 26.6449 57.2469C27.7507 57.6242 30.1783 57.8654 31.1156 55.9196C31.6882 54.9298 31.5061 51.748 31.5061 48.2278C31.5055 42.6962 31.5312 37.1875 31.5312 31.7188H37.9346C37.9346 37.7344 37.9674 43.4317 37.9346 49.3019C37.9483 52.9003 38.2605 56.1083 36.8026 58.7962ZM63.3665 56.9871C61.1407 64.6007 48.731 64.8479 43.7719 59.8177C42.7241 58.6337 42.0673 58.0152 41.4423 56.6486C44.0776 55.1327 44.0776 55.1327 46.6419 53.649C48.0348 55.79 49.3227 56.9674 51.6398 57.4492C54.7833 57.8331 57.9458 56.753 57.2366 53.4144C56.5076 50.6877 50.7998 50.0243 46.9154 47.1084C42.9719 44.4598 42.0476 38.0242 45.2884 34.347C46.3685 32.987 48.2104 31.972 50.143 31.4841L52.1599 31.2233C56.0323 31.1451 58.4528 32.1677 60.2296 34.1518C60.724 34.6527 61.1276 35.193 61.8823 36.3639C59.8194 37.6786 59.826 37.666 56.8712 39.579C56.2401 38.2195 55.1929 37.3663 54.086 36.9955C52.3677 36.4749 50.201 37.0409 49.7515 38.8566C49.5956 39.416 49.6279 39.9366 49.8756 40.8609C50.5718 42.4484 52.908 43.1386 55.0037 44.1016C61.0362 46.5484 63.0733 49.1717 63.5743 52.2944C64.0566 54.9828 63.4578 56.7268 63.3665 56.9871Z" fill="#444444"/>
</svg>
