<svg width="50" height="50" viewBox="0 0 50 50" fill="none" xmlns="http://www.w3.org/2000/svg">
<path d="M27.4907 22.1152H27.529V22.055L27.4907 22.1152ZM27.4907 22.1152H27.529V22.055L27.4907 22.1152ZM27.4907 22.1152H27.529V22.055L27.4907 22.1152ZM27.4907 22.1152H27.529V22.055L27.4907 22.1152ZM27.4907 22.1152H27.529V22.055L27.4907 22.1152ZM27.4907 22.1152H27.529V22.055L27.4907 22.1152ZM27.4907 22.1152H27.529V22.055L27.4907 22.1152ZM27.4907 22.1152H27.529V22.055L27.4907 22.1152ZM27.4907 22.1152H27.529V22.055L27.4907 22.1152ZM27.4907 22.1152H27.529V22.055L27.4907 22.1152ZM27.4907 22.1152H27.529V22.055L27.4907 22.1152ZM27.4907 22.1152H27.529V22.055L27.4907 22.1152ZM27.4907 22.1152H27.529V22.055L27.4907 22.1152ZM27.4907 22.1152H27.529V22.055L27.4907 22.1152ZM27.4907 22.1152H27.529V22.055L27.4907 22.1152ZM27.4907 22.1152H27.529V22.055L27.4907 22.1152ZM25 0C20.0555 0 15.222 1.46622 11.1108 4.21326C6.99952 6.96029 3.79521 10.8648 1.90302 15.4329C0.0108318 20.0011 -0.484251 25.0277 0.480379 29.8773C1.44501 34.7268 3.82603 39.1814 7.32234 42.6777C10.8187 46.174 15.2732 48.555 20.1227 49.5196C24.9723 50.4843 29.9989 49.9892 34.5671 48.097C39.1352 46.2048 43.0397 43.0005 45.7867 38.8892C48.5338 34.778 50 29.9445 50 25C49.9928 18.3718 47.3565 12.0172 42.6697 7.33033C37.9828 2.64349 31.6282 0.00724472 25 0ZM18.7486 36.2546C18.7472 36.3655 18.7022 36.4713 18.6233 36.5492C18.5444 36.627 18.438 36.6707 18.3271 36.6707H13.51C13.3996 36.6707 13.2938 36.6268 13.2158 36.5488C13.1378 36.4708 13.0939 36.365 13.0939 36.2546V20.0679C13.0932 20.0128 13.1034 19.9581 13.124 19.907C13.1446 19.8559 13.1751 19.8094 13.2138 19.7702C13.2525 19.7309 13.2987 19.6998 13.3495 19.6786C13.4003 19.6573 13.4549 19.6464 13.51 19.6464H18.3271C18.3825 19.6464 18.4373 19.6573 18.4884 19.6785C18.5396 19.6996 18.586 19.7307 18.6252 19.7698C18.6643 19.809 18.6954 19.8554 18.7166 19.9066C18.7377 19.9577 18.7486 20.0125 18.7486 20.0679V36.2546ZM15.7489 17.4841C15.1501 17.4841 14.5649 17.3066 14.0671 16.974C13.5693 16.6413 13.1813 16.1685 12.9521 15.6154C12.723 15.0623 12.6631 14.4536 12.7799 13.8664C12.8967 13.2792 13.185 12.7398 13.6083 12.3165C14.0317 11.8931 14.5711 11.6048 15.1583 11.488C15.7455 11.3712 16.3542 11.4311 16.9073 11.6602C17.4604 11.8894 17.9332 12.2774 18.2658 12.7752C18.5985 13.273 18.776 13.8583 18.776 14.457C18.7767 14.8547 18.6989 15.2487 18.5471 15.6163C18.3952 15.9839 18.1722 16.3179 17.891 16.5991C17.6097 16.8803 17.2757 17.1033 16.9082 17.2552C16.5406 17.407 16.1466 17.4848 15.7489 17.4841ZM39.134 36.2546C39.1326 36.3655 39.0875 36.4713 39.0086 36.5492C38.9297 36.627 38.8234 36.6707 38.7125 36.6707H33.8953C33.8407 36.6707 33.7866 36.6599 33.7361 36.639C33.6857 36.6181 33.6398 36.5875 33.6012 36.5488C33.5625 36.5102 33.5319 36.4643 33.511 36.4139C33.4901 36.3634 33.4793 36.3093 33.4793 36.2546V27.5564C33.4793 25.2682 32.6637 23.7245 30.6164 23.7245C29.9784 23.7281 29.3572 23.9289 28.8378 24.2993C28.3184 24.6697 27.9263 25.1917 27.7151 25.7937C27.5708 26.2387 27.5078 26.7059 27.529 27.1732V36.2546C27.529 36.3664 27.4846 36.4736 27.4056 36.5527C27.3265 36.6317 27.2193 36.6761 27.1075 36.6761H22.2904C22.2353 36.6762 22.1807 36.6652 22.1299 36.644C22.079 36.6227 22.0329 36.5916 21.9942 36.5524C21.9555 36.5132 21.925 36.4666 21.9044 36.4155C21.8838 36.3644 21.8736 36.3097 21.8743 36.2546C21.8743 33.9446 21.9345 22.7283 21.8743 20.0898C21.8736 20.0347 21.8838 19.98 21.9044 19.9289C21.925 19.8778 21.9555 19.8313 21.9942 19.792C22.0329 19.7528 22.079 19.7217 22.1299 19.7005C22.1807 19.6792 22.2353 19.6683 22.2904 19.6683H27.0966C27.1521 19.6675 27.2073 19.6779 27.2587 19.6989C27.3102 19.7198 27.357 19.7508 27.3963 19.7901C27.4355 19.8294 27.4666 19.8761 27.4875 19.9276C27.5084 19.9791 27.5188 20.0342 27.5181 20.0898V22.0768C28.0301 21.188 28.7758 20.4564 29.6742 19.9613C30.5726 19.4663 31.5895 19.2267 32.6144 19.2687C36.3313 19.2687 39.1231 21.6991 39.1231 26.9323L39.134 36.2546ZM27.529 22.1316V22.0714L27.4907 22.1316H27.529ZM27.4907 22.1316H27.529V22.0714L27.4907 22.1316ZM27.4907 22.1316H27.529V22.0714L27.4907 22.1316ZM27.4907 22.1316H27.529V22.0714L27.4907 22.1316ZM27.4907 22.1316H27.529V22.0714L27.4907 22.1316ZM27.4907 22.1316H27.529V22.0714L27.4907 22.1316ZM27.4907 22.1316H27.529V22.0714L27.4907 22.1316ZM27.4907 22.1316H27.529V22.0714L27.4907 22.1316ZM27.4907 22.1316H27.529V22.0714L27.4907 22.1316ZM27.4907 22.1316H27.529V22.0714L27.4907 22.1316ZM27.4907 22.1316H27.529V22.0714L27.4907 22.1316ZM27.4907 22.1316H27.529V22.0714L27.4907 22.1316ZM27.4907 22.1316H27.529V22.0714L27.4907 22.1316ZM27.4907 22.1316H27.529V22.0714L27.4907 22.1316ZM27.4907 22.1316H27.529V22.0714L27.4907 22.1316Z" fill="white"/>
</svg>
