<svg width="47" height="68" viewBox="0 0 47 68" fill="none" xmlns="http://www.w3.org/2000/svg">
    <path d="M12.3699 13.5573L1.07788 2.07757L1 2V10.9976H4.66018L8.55398 14.8759H12.3699V13.5573Z" fill="white"/>
    <path d="M1 55.5979V11.0752H4.66018V55.5979H8.55398L8.55398 14.8759H12.3699L12.4478 55.5979H33.6301L45 67H35.8885H12.4478L8.70973 63.1993V62.0358V59.5537H12.4478V62.0358V63.1993H35.8885L31.9947 59.321H12.4478H8.70973H4.66018L1 55.5979Z" fill="white"/>
    <path d="M8.70973 59.5537V59.321H12.4478V59.5537H8.70973Z" fill="white"/>
    <path d="M8.55398 14.8759L4.66018 10.9976H1V2L1.07788 2.07757L12.3699 13.5573V14.8759M8.55398 14.8759H12.3699M8.55398 14.8759L8.55398 55.5979M12.3699 14.8759L12.4478 55.5979M1 55.5979V11.0752H4.66018V55.5979M1 55.5979H4.66018M1 55.5979L4.66018 59.321H8.70973M4.66018 55.5979H8.55398M8.70973 59.321H12.4478M8.70973 59.321V59.5537M12.4478 59.321V55.5979M12.4478 59.321H31.9947L35.8885 63.1993M12.4478 59.321V59.5537M12.4478 55.5979H8.55398M12.4478 55.5979H33.6301L45 67H35.8885M35.8885 67V63.1993M35.8885 67H12.4478M35.8885 63.1993H12.4478M12.4478 63.1993V67M12.4478 63.1993H8.70973M12.4478 63.1993V62.0358M12.4478 67L8.70973 63.1993M8.70973 63.1993V62.0358M12.4478 62.0358H8.70973M12.4478 62.0358V59.5537M8.70973 62.0358V59.5537M8.70973 59.5537H12.4478" stroke="white"/>
</svg>
