<svg width="71" height="70" viewBox="0 0 71 70" fill="none" xmlns="http://www.w3.org/2000/svg">
<g id="NodeJS">
<path id="Vector" d="M62.0917 16.5889L37.9761 2.58621C36.4553 1.71996 34.475 1.71996 32.9422 2.58621L8.56903 16.5889C6.9995 17.4918 5.88879 19.1888 5.88879 21.0039V48.9722C5.88879 50.7872 7.02848 52.4847 8.59801 53.3925L15.0375 57.05C18.1153 58.566 19.203 58.566 20.6036 58.566C25.1607 58.566 27.7638 55.8103 27.7638 51.0038V23.3921C27.7638 23.0021 27.5609 22.4219 27.1781 22.4219H24.103C23.7136 22.4219 22.8419 23.0021 22.8419 23.3915V51.0032C22.8419 53.1339 20.9147 55.2541 17.313 53.4532L10.6592 49.618C10.4273 49.4922 10.2638 49.239 10.2638 48.9722V21.0039C10.2638 20.7403 10.5673 20.4756 10.8008 20.3405L35.0952 6.36184C35.3222 6.23332 35.6557 6.23332 35.8822 6.36184L59.8801 20.3372C60.1098 20.4756 60.0289 20.7321 60.0289 21.0039V48.9722C60.0289 49.239 60.1289 49.4988 59.902 49.6273L35.7925 63.6142C35.5857 63.7383 35.3293 63.7383 35.1029 63.6142L28.9193 59.9233C28.7329 59.815 28.5114 59.7762 28.3325 59.8763C26.6121 60.8514 26.2949 60.981 24.6811 61.5404C24.284 61.6788 23.6983 61.9189 24.9053 62.5954L32.9979 67.3827C33.7729 67.8311 34.6533 68.0641 35.5393 68.0641C36.4372 68.0641 37.3166 67.8311 38.0915 67.3827L62.0911 53.3925C63.6607 52.4782 64.4044 50.7872 64.4044 48.9722V21.0039C64.4044 19.1888 63.6607 17.4962 62.0917 16.5889ZM43.0271 44.5403C36.6144 44.5403 35.2018 42.7711 34.731 39.5823C34.6763 39.2389 34.3848 38.8282 34.0354 38.8282H30.9012C30.5135 38.8282 30.2018 39.2985 30.2018 39.6846C30.2018 43.7675 32.4215 48.7146 43.0276 48.7146C50.7052 48.7146 55.107 45.7314 55.107 40.4518C55.107 35.2171 51.5704 33.8434 44.1247 32.8579C36.5986 31.8632 35.834 31.3606 35.834 29.5975C35.834 28.1439 36.4815 26.2052 42.0542 26.2052C47.0335 26.2052 48.8688 27.2738 49.624 30.63C49.6886 30.9455 49.9768 31.1719 50.3022 31.1719H53.4489C53.6425 31.1719 53.8273 31.0937 53.9629 30.9554C54.0942 30.8066 54.1636 30.6201 54.1461 30.42C53.6589 24.6406 49.8193 21.9472 42.0536 21.9472C35.1461 21.9472 31.0254 24.8643 31.0254 29.7539C31.0254 35.0575 35.1253 36.5231 41.7561 37.1788C49.6886 37.9564 50.3054 39.1158 50.3054 40.6761C50.3054 43.3858 48.13 44.5403 43.0271 44.5403Z" fill="#444444"/>
</g>
</svg>
