<svg width="70" height="47" viewBox="0 0 70 47" fill="none" xmlns="http://www.w3.org/2000/svg">
<path d="M39.2 47H65.1C65.9265 47 66.7176 46.7075 67.4333 46.295C68.1491 45.8825 68.8869 45.3645 69.3 44.6499C69.7131 43.9354 70.0003 43.1247 70 42.2998C69.9997 41.4747 69.7137 40.6643 69.3 39.9502L51.8 9.63505C51.3869 8.92057 50.8822 8.40246 50.1667 7.98993C49.451 7.57758 48.4263 7.28494 47.6 7.28494C46.7737 7.28494 45.9822 7.57758 45.2667 7.98993C44.551 8.40246 44.0463 8.92057 43.6333 9.63505L39.2 17.39L30.3333 2.34944C29.9199 1.63513 29.4159 0.882414 28.7 0.470055C27.9842 0.0575312 27.1932 0 26.3667 0C25.5403 0 24.7491 0.0575312 24.0333 0.470055C23.3176 0.882414 22.5801 1.63513 22.1667 2.34944L0.466674 39.9502C0.0529638 40.6643 0.000365018 41.4747 1.81033e-06 42.2998C-0.000361397 43.1247 0.0535912 43.9353 0.466674 44.6499C0.879756 45.3644 1.61758 45.8825 2.33333 46.295C3.0491 46.7075 3.84015 47 4.66667 47H21C27.4719 47 32.1825 44.0761 35.4667 38.54L43.4 24.675L47.6 17.39L60.4333 39.48H43.4L39.2 47ZM20.7667 39.48H9.33328L26.3667 9.86999L35 24.675L29.2813 34.7152C27.1004 38.3072 24.6138 39.48 20.7667 39.48Z" fill="#444444"/>
</svg>
