<svg width="69" height="62" viewBox="0 0 69 62" fill="none" xmlns="http://www.w3.org/2000/svg">
<path d="M58.0997 20.7187C56.8965 20.2812 55.6387 19.8438 54.3262 19.4609C54.6544 18.1484 54.9278 16.8359 55.1465 15.5781C56.295 8.35937 55.0372 3.27344 51.5372 1.30469C50.4981 0.703125 49.3497 0.429688 48.0372 0.429688C44.209 0.429688 39.3419 3.27344 34.42 8.03125C29.4981 3.27344 24.6309 0.429688 20.8028 0.429688C19.4903 0.429688 18.3419 0.703125 17.3028 1.30469C13.8028 3.32812 12.545 8.41406 13.6934 15.5781C13.9122 16.8359 14.1856 18.1484 14.5137 19.4609C13.2012 19.8438 11.9434 20.2266 10.7403 20.7187C3.90436 23.3437 0.185608 26.9531 0.185608 31C0.185608 35.0469 3.95905 38.6563 10.7403 41.2813C11.9434 41.7188 13.2012 42.1563 14.5137 42.5391C14.1856 43.8516 13.9122 45.1641 13.6934 46.4219C12.545 53.6406 13.8028 58.7266 17.3028 60.6953C18.3419 61.2969 19.4903 61.5703 20.8028 61.5703C24.6856 61.5703 29.5528 58.7266 34.42 53.9688C39.3419 58.7266 44.209 61.5703 48.0372 61.5703C49.3497 61.5703 50.4981 61.2969 51.5372 60.6953C55.0372 58.6719 56.295 53.5859 55.1465 46.4219C54.9278 45.1641 54.6544 43.8516 54.3262 42.5391C55.6387 42.1563 56.8965 41.7734 58.0997 41.2813C64.9356 38.6563 68.6544 35.0469 68.6544 31C68.6544 26.9531 64.9356 23.3437 58.0997 20.7187ZM50.0059 4.03906C52.2481 5.35156 53.0137 9.39844 52.084 15.1406C51.92 16.2891 51.6465 17.4922 51.3184 18.75C48.4747 18.0937 45.4669 17.6562 42.295 17.3828C40.4356 14.7578 38.5215 12.4063 36.6075 10.2734C40.6544 6.28125 44.7559 3.54687 48.0919 3.54687C48.8028 3.54687 49.459 3.71094 50.0059 4.03906ZM43.8809 36.4688C42.8965 38.2188 41.7481 39.9687 40.545 41.7188C38.5215 41.8828 36.4981 41.9375 34.42 41.9375C32.2872 41.9375 30.2637 41.8828 28.295 41.7188C27.0919 39.9687 25.9981 38.2188 25.0137 36.4688C23.9747 34.6641 22.9903 32.8047 22.1153 31C22.9903 29.1953 23.9747 27.3359 25.0137 25.5313C25.9981 23.7813 27.1465 22.0313 28.3497 20.2813C30.3731 20.1172 32.3965 20.0625 34.4747 20.0625C36.6075 20.0625 38.6309 20.1172 40.5997 20.2813C41.8028 22.0313 42.8965 23.7813 43.8809 25.5313C44.92 27.3359 45.9044 29.1953 46.7794 31C45.8497 32.8047 44.92 34.6094 43.8809 36.4688ZM48.42 34.6641C49.2403 36.5781 49.8965 38.4375 50.4981 40.2969C48.6387 40.7344 46.67 41.0625 44.5919 41.3359C45.2481 40.2969 45.959 39.2031 46.5606 38.0547C47.2169 36.9063 47.8184 35.7578 48.42 34.6641ZM34.42 49.4844C33.1075 48.0625 31.8497 46.5313 30.6465 44.9453C31.9044 45 33.1622 45.0547 34.42 45.0547C35.6778 45.0547 36.9356 45 38.1934 44.9453C36.9903 46.5313 35.7325 48.0625 34.42 49.4844ZM24.2481 41.2813C22.17 41.0078 20.2012 40.6797 18.3419 40.2422C18.9434 38.4375 19.5997 36.5234 20.42 34.6094C21.0215 35.7031 21.6231 36.8516 22.2794 37.9453C22.9356 39.1484 23.5919 40.1875 24.2481 41.2813ZM20.42 27.3359C19.5997 25.4219 18.9434 23.5625 18.3419 21.7031C20.2012 21.2656 22.17 20.9375 24.2481 20.6641C23.5919 21.7031 22.8809 22.7969 22.2794 23.9453C21.6231 25.0937 21.0215 26.2422 20.42 27.3359ZM34.42 12.5156C35.7325 13.9375 36.9903 15.4687 38.1934 17.0547C36.9356 17 35.6778 16.9453 34.42 16.9453C33.1622 16.9453 31.9044 17 30.6465 17.0547C31.8497 15.4687 33.1075 13.9375 34.42 12.5156ZM46.5606 24L44.5919 20.7187C46.67 20.9922 48.6387 21.3203 50.4981 21.7578C49.8965 23.5625 49.2403 25.4766 48.42 27.3906C47.8184 26.2422 47.2169 25.0937 46.5606 24ZM16.7559 15.1406C15.8262 9.39844 16.5919 5.35156 18.834 4.03906C19.3809 3.71094 20.0372 3.54687 20.7481 3.54687C24.0294 3.54687 28.1309 6.22656 32.2325 10.2734C30.3184 12.3516 28.4044 14.7578 26.545 17.3828C23.3731 17.6562 20.3653 18.1484 17.5215 18.75C17.1934 17.4922 16.9747 16.2891 16.7559 15.1406ZM3.24811 31C3.24811 28.4297 6.3653 25.6953 11.834 23.6719C12.9278 23.2344 14.1309 22.8516 15.334 22.5234C16.209 25.2578 17.3028 28.1562 18.6153 31.0547C17.3028 33.9531 16.1544 36.7969 15.334 39.5312C7.78717 37.3438 3.24811 34.0625 3.24811 31ZM18.834 57.9609C16.5919 56.6484 15.8262 52.6016 16.7559 46.8594C16.92 45.7109 17.1934 44.5078 17.5215 43.25C20.3653 43.9063 23.3731 44.3438 26.545 44.6172C28.4044 47.2422 30.3184 49.5938 32.2325 51.7266C28.1856 55.7188 24.084 58.4531 20.7481 58.4531C20.0372 58.4531 19.3809 58.2891 18.834 57.9609ZM52.084 46.8594C53.0137 52.6016 52.2481 56.6484 50.0059 57.9609C49.459 58.2891 48.8028 58.4531 48.0919 58.4531C44.8106 58.4531 40.709 55.7734 36.6075 51.7266C38.5215 49.6484 40.4356 47.2422 42.295 44.6172C45.4669 44.3438 48.4747 43.8516 51.3184 43.25C51.6465 44.5078 51.8653 45.7109 52.084 46.8594ZM57.0059 38.3281C55.9122 38.7656 54.709 39.1484 53.5059 39.4766C52.6309 36.7422 51.5372 33.8438 50.2247 30.9453C51.5372 28.0469 52.6856 25.2031 53.5059 22.4688C61.0528 24.6563 65.5919 27.9375 65.5919 31C65.5919 33.5703 62.42 36.3047 57.0059 38.3281Z" fill="#444444"/>
</svg>
