<svg width="71" height="70" viewBox="0 0 71 70" fill="none" xmlns="http://www.w3.org/2000/svg">
<path d="M1.32654 30.7103C1.32654 31.0948 1.43974 31.3485 1.50318 31.5952C1.91662 33.1991 2.80529 34.5756 3.85966 35.8312C5.36138 37.6206 7.20052 39.0611 9.08451 40.4157C10.7186 41.5904 12.386 42.7388 14.0266 43.9048C14.3083 44.1049 14.5746 44.3352 14.8803 44.5807C14.6172 44.7229 14.3985 44.8481 14.171 44.9635C12.0059 46.0616 9.92287 47.2927 8.00279 48.784C6.8456 49.683 5.72669 50.6384 4.93646 51.887C3.66498 53.8951 3.2149 56.0345 4.16263 58.3187C4.43935 58.9859 4.86154 59.5623 5.45709 59.9884C5.65013 60.1262 5.86669 60.2629 6.09255 60.3165C6.67115 60.4527 7.26068 60.5418 7.84638 60.6495L9.50505 60.6484C11.3393 60.4849 13.0089 59.8566 14.5177 58.8153C16.8758 57.1878 18.4645 55.0058 19.1476 52.2052C19.6441 50.1698 19.6643 48.1321 19.0792 46.1059C19.0251 45.9178 18.9567 45.7335 18.8856 45.5514C18.8145 45.3693 18.7308 45.1921 18.6324 44.9652L22.3927 42.8028L22.449 42.8509C22.3807 43.0746 22.3079 43.2977 22.2461 43.5236C21.7993 45.1555 21.5024 46.8158 21.609 48.5095C21.7228 50.3141 22.2265 52.0034 23.283 53.5112C24.1372 54.7307 26.1727 54.7761 27.0805 53.5522C27.4026 53.1174 27.7149 52.663 27.9495 52.1779C28.5626 50.9119 29.1302 49.6234 29.7159 48.3438L29.8182 48.1097C29.7761 48.7156 29.7268 49.2477 29.7044 49.7804C29.6694 50.6122 29.7181 51.4391 30.0025 52.2304C30.2458 52.9074 30.6598 53.4133 31.4353 53.5024C31.9658 53.5631 32.3885 53.3203 32.7784 53.0124C33.3876 52.5317 33.8826 51.9378 34.2501 51.263C35.2897 49.3538 36.3572 47.4562 37.2994 45.4989C38.3188 43.382 39.2102 41.2032 40.1568 39.0502L40.3133 38.6684C40.5369 39.5473 40.6928 40.408 40.9799 41.2229C41.3135 42.1684 41.7264 43.0916 42.1759 43.989C42.3886 44.4128 42.364 44.6879 42.0693 45.0434C40.8355 46.5309 39.6231 48.0364 38.4096 49.5403C38.1411 49.8723 37.8736 50.2102 37.65 50.5728C37.5149 50.7932 37.4252 51.0617 37.3875 51.3187C37.3147 51.8098 37.6183 52.2834 38.1438 52.3966C38.624 52.5 39.1353 52.5383 39.6247 52.5022C41.3184 52.3775 42.8562 51.783 44.2158 50.7757C45.9772 49.4709 46.5427 47.6902 46.1161 45.5798C46.0008 45.0073 45.7968 44.4505 45.5983 43.8988C45.5091 43.6499 45.5031 43.4755 45.6655 43.2436C47.0737 41.2327 48.2768 39.0994 49.3958 36.9168C49.4401 36.8309 49.4854 36.7451 49.5631 36.6532C49.9257 38.5399 50.4715 40.3583 51.4493 42.0082C50.9505 42.4889 50.4567 42.9248 50.0099 43.4049C49.0261 44.4626 48.1729 45.611 47.7278 47.0116C47.5364 47.6153 47.3893 48.2289 47.4746 48.8737C47.6069 49.875 48.4272 50.5258 49.4122 50.2977C51.5198 49.8099 53.3393 48.8168 54.6687 47.0575C55.5634 45.873 55.6449 44.5517 55.2703 43.1676C55.1675 42.7913 55.0455 42.4211 54.9143 41.9896C55.4343 41.8283 55.9413 41.6347 56.4658 41.5149C59.1886 40.8937 61.882 41.002 64.5059 41.9852C66.0377 42.5595 67.2753 43.5203 68.0092 45.0319C68.9055 46.8798 68.4101 48.633 66.6683 49.8012C66.5058 49.91 66.3199 49.9959 66.1854 50.132C66.1028 50.2157 66.053 50.383 66.0733 50.4984C66.0847 50.5657 66.2625 50.6499 66.3647 50.6488C66.9373 50.6445 67.4016 50.3442 67.8473 50.0358C68.964 49.263 69.7789 48.2234 69.9544 46.8546L69.9889 46.7518L69.9468 45.8604C69.9298 45.809 69.9593 45.7581 69.9555 45.7193C69.7182 43.7259 68.6534 42.1799 67.1047 40.968C65.3109 39.5653 63.1929 38.9878 60.9529 38.8965C59.1274 38.8221 57.3331 39.0934 55.6126 39.7184C55.1221 39.8962 54.6359 40.1067 54.1426 40.3052C54.0765 40.1855 54.0054 40.0706 53.9469 39.952C53.4404 38.9151 52.8268 37.9241 52.6912 36.7352C52.595 35.8909 52.4768 35.0476 52.6776 34.2125C52.8706 33.4091 53.1222 32.6195 53.359 31.827C53.4809 31.4191 53.3951 31.1905 53.0057 31.0067C52.8701 30.9427 52.7224 30.887 52.5758 30.8656C51.6188 30.7267 50.6749 30.806 49.7479 31.0756C49.4198 31.1713 49.1814 31.3551 49.1086 31.7182C49.0671 31.9266 48.9823 32.1262 48.9233 32.3318C48.681 33.1866 48.5093 34.0577 48.1177 34.872C47.1366 36.9146 46.0166 38.8801 44.8704 40.8313C44.7462 41.0419 44.6155 41.2486 44.4591 41.504C44.0566 40.6618 43.6273 39.906 43.4972 39.0201C43.3501 38.0182 43.2341 37.018 43.4835 36.0238C43.6689 35.2822 43.9111 34.5543 44.1343 33.8226C44.2398 33.4748 44.1911 33.2921 43.8761 33.1089C43.717 33.0165 43.5371 32.9345 43.3577 32.9077C42.3651 32.7605 41.3873 32.8377 40.4297 33.1472C40.1328 33.2434 39.9769 33.4354 39.8861 33.7416C39.6193 34.6451 39.3918 35.5704 39.0172 36.4295C37.5001 39.9077 35.9393 43.3677 34.3802 46.8273C34.0548 47.5497 33.6736 48.247 33.3067 48.9502C33.2137 49.1285 33.0781 49.2855 32.9622 49.4528C32.8692 49.3429 32.8331 49.2674 32.8336 49.192C32.8364 48.7473 32.7833 48.2896 32.8681 47.8598C33.1246 46.5593 33.4199 45.2659 33.7311 43.9775C33.9881 42.9133 34.2872 41.8589 34.5722 40.8018C34.6679 40.448 34.6695 40.1171 34.4152 39.8196C33.9881 39.3214 33.0956 39.212 32.5662 39.5959L32.3322 39.7283L32.3776 39.3509C32.4891 38.5421 32.5115 37.736 32.2895 36.9392C32.0128 35.9461 31.304 35.3746 30.2737 35.4063C29.7936 35.4211 29.2893 35.5031 28.8447 35.6781C26.975 36.4109 25.5372 37.7087 24.3133 39.27C24.2023 39.4116 24.0558 39.5407 23.8993 39.6277C22.3172 40.5048 20.7302 41.3711 19.1437 42.2406L17.3779 43.208C16.9043 42.7563 16.4739 42.2877 15.9855 41.8901C14.4942 40.6738 12.9788 39.4877 11.4771 38.2851C10.146 37.2192 8.85646 36.1091 7.8699 34.6976C7.13599 33.6476 6.66294 32.4986 6.61755 31.2003C6.56013 29.546 7.02935 28.0345 7.87154 26.6273C8.94888 24.827 10.4183 23.3822 12.0338 22.0735C13.7428 20.6899 15.5912 19.5152 17.5069 18.4428C20.1872 16.9427 22.944 15.6149 25.8998 14.7383C28.9306 13.8392 32.0057 13.3246 35.1776 13.6834C36.4244 13.8245 37.6352 14.1099 38.747 14.7197C39.5985 15.1862 40.2968 15.797 40.6217 16.7519C40.9422 17.6914 40.9323 18.6435 40.7103 19.5978C40.2591 21.5305 39.2009 23.1235 37.8693 24.547C35.6851 26.8805 33.0207 28.4692 30.0211 29.5187C28.2902 30.1241 26.5096 30.5041 24.6808 30.6578C23.1884 30.783 21.7272 30.6507 20.314 30.1317C19.3783 29.7877 18.5635 29.2616 17.9083 28.4982C17.7913 28.3615 17.6415 28.2133 17.4233 28.3413C17.2094 28.467 17.1717 28.6705 17.2433 28.8766C17.3631 29.219 17.4736 29.5755 17.6601 29.8818C18.1287 30.6502 18.8123 31.2074 19.5648 31.6854C21.0102 32.6047 22.6257 32.9137 24.3008 32.9853C26.8426 33.0952 29.3227 32.7157 31.7678 32.0338C35.2585 31.0603 38.2936 29.3409 40.7278 26.6284C42.7545 24.3698 44.2021 21.8209 44.5122 18.743C44.6636 17.2408 44.5023 15.7691 43.799 14.3987C43.0361 12.9139 41.8232 11.8098 40.3729 11.0491C38.2608 9.94164 35.9815 9.29688 33.6288 9.29688H31.2718C28.4226 9.29688 25.6679 10.1134 22.9904 11.0873C20.9637 11.8251 18.9764 12.6957 17.047 13.6593C12.8454 15.7587 8.93248 18.2902 5.71849 21.7711C4.11724 23.5052 2.76154 25.4187 1.98169 27.6719C1.75365 28.3314 1.53708 29.0385 1.37412 29.7205M16.5986 49.4151C16.4165 51.8536 15.3112 53.8305 13.5049 55.4318C12.4888 56.332 11.3234 56.9729 9.96607 57.1982C9.47388 57.2797 8.97021 57.2994 8.49279 57.0954C7.81193 56.8045 7.65935 56.2002 7.64623 55.5565C7.62599 54.5305 7.98529 53.603 8.47802 52.7204C9.12115 51.5698 10.064 50.6926 11.0708 49.8734C12.6567 48.5822 14.3772 47.4895 16.1392 46.4581L16.2721 46.4034C16.5444 47.4097 16.674 48.4034 16.5986 49.4151ZM30.3569 38.8172C30.2283 39.5959 30.0676 40.3752 29.8401 41.1299C29.0536 43.7423 28.0436 46.2738 26.9515 48.7714C26.7497 49.2335 26.456 49.6552 26.2006 50.0932C26.1612 50.161 26.1027 50.2195 26.0458 50.2759C25.7297 50.5881 25.4301 50.5717 25.2704 50.1632C25.0844 49.6885 24.9701 49.1805 24.8717 48.6779C24.8055 48.3405 24.8214 47.9861 24.8006 47.6405C24.8219 45.1828 25.5717 42.9494 26.8437 40.8702C27.3682 40.0127 27.9391 39.1956 28.8114 38.6531C29.0794 38.4863 29.3801 38.3523 29.6836 38.267C30.1485 38.1363 30.434 38.3513 30.3569 38.8172ZM39.7434 50.7762L43.1171 46.8371C43.2576 48.3 40.771 51.2203 39.7434 50.7762ZM50.5185 48.1255C50.2801 48.2623 50.0203 48.3607 49.7758 48.487C49.5522 48.603 49.4783 48.4859 49.4718 48.2934C49.4674 48.1627 49.4865 48.026 49.5226 47.8991C49.9782 46.2924 50.8165 44.9209 52.064 43.8052L52.1515 43.7604C52.7448 45.4202 52.059 47.2429 50.5185 48.1255Z" fill="#444444"/>
</svg>
